<svg width="423" height="347" viewBox="0 0 423 347" fill="none" xmlns="http://www.w3.org/2000/svg">
<path d="M46.6122 69.3345C30.2624 91.314 19.7496 123.609 27.7223 150.658C41.3454 196.888 99.1554 200.371 138.749 205.721C166.037 209.412 193.169 230.862 216.507 244.175C247.61 261.924 297.644 289.927 333.516 271.742C363.25 256.678 379.237 220.236 388.361 190.004C402.658 142.665 404.037 85.5599 372.913 44.3174C330.551 -11.6679 256.443 -2.33701 194.87 7.2427C153.658 13.6603 113.598 19.912 76.9583 41.7566C65.1289 48.8656 54.8169 58.2369 46.6122 69.3345Z" fill="#92E3A9"/>
<path opacity="0.4" d="M46.6122 69.3345C30.2624 91.314 19.7496 123.609 27.7223 150.658C41.3454 196.888 99.1554 200.371 138.749 205.721C166.037 209.412 193.169 230.862 216.507 244.175C247.61 261.924 297.644 289.927 333.516 271.742C363.25 256.678 379.237 220.236 388.361 190.004C402.658 142.665 404.037 85.5599 372.913 44.3174C330.551 -11.6679 256.443 -2.33701 194.87 7.2427C153.658 13.6603 113.598 19.912 76.9583 41.7566C65.1289 48.8656 54.8169 58.2369 46.6122 69.3345Z" fill="white"/>
<path d="M0 333.461C0 337.152 94.667 340.148 211.5 340.148C328.333 340.148 423 337.152 423 333.461C423 329.77 328.333 326.774 211.552 326.774C94.7707 326.774 0 329.77 0 333.461Z" fill="#92E3A9"/>
<path opacity="0.6" d="M0 333.461C0 337.152 94.667 340.148 211.5 340.148C328.333 340.148 423 337.152 423 333.461C423 329.77 328.333 326.774 211.552 326.774C94.7707 326.774 0 329.77 0 333.461Z" fill="white"/>
<path d="M236.81 2.22485H49V240.453H236.81V2.22485Z" fill="white" stroke="#263238" stroke-width="0.71412" stroke-linecap="round" stroke-linejoin="round"/>
<path d="M236.81 2.22485H49V16.4389H236.81V2.22485Z" fill="#263238" stroke="#263238" stroke-width="0.71412" stroke-linecap="round" stroke-linejoin="round"/>
<path d="M86.0953 168.377H54.3496V235.756H86.0953V168.377Z" fill="#92E3A9"/>
<path opacity="0.6" d="M86.0953 168.377H54.3496V235.756H86.0953V168.377Z" fill="white"/>
<path d="M120.713 168.377H88.9673V235.756H120.713V168.377Z" fill="#92E3A9"/>
<path opacity="0.6" d="M120.713 168.377H88.9673V235.756H120.713V168.377Z" fill="white"/>
<path d="M157.497 168.377H125.752V235.756H157.497V168.377Z" fill="#92E3A9"/>
<path opacity="0.6" d="M157.497 168.377H125.752V235.756H157.497V168.377Z" fill="white"/>
<path d="M194.271 168.377H162.526V235.756H194.271V168.377Z" fill="#92E3A9"/>
<path opacity="0.6" d="M194.271 168.377H162.526V235.756H194.271V168.377Z" fill="white"/>
<path d="M231.947 168.377H200.202V235.756H231.947V168.377Z" fill="white" stroke="#263238" stroke-width="0.71412" stroke-linecap="round" stroke-linejoin="round"/>
<path d="M231.44 7.84399H54.3601V24.173H231.44V7.84399Z" fill="#92E3A9"/>
<path opacity="0.6" d="M231.44 7.84399H54.3601V24.173H231.44V7.84399Z" fill="white"/>
<path d="M228.951 11.0166H57.543V18.2429H228.951V11.0166Z" fill="white"/>
<path d="M228.941 11.0166H209.533V18.2429H228.941V11.0166Z" fill="#263238" stroke="#263238" stroke-width="0.71412" stroke-linecap="round" stroke-linejoin="round"/>
<path d="M133.175 38.8122H96.8882C96.517 38.8122 96.161 38.6648 95.8985 38.4023C95.636 38.1398 95.4885 37.7838 95.4885 37.4126C95.4885 37.0414 95.636 36.6854 95.8985 36.4229C96.161 36.1604 96.517 36.0129 96.8882 36.0129H133.175C133.546 36.0129 133.902 36.1604 134.165 36.4229C134.427 36.6854 134.575 37.0414 134.575 37.4126C134.575 37.7838 134.427 38.1398 134.165 38.4023C133.902 38.6648 133.546 38.8122 133.175 38.8122Z" fill="#263238"/>
<path d="M133.175 48.5683H96.8881C96.6949 48.5849 96.5003 48.5613 96.3167 48.4988C96.1331 48.4363 95.9645 48.3363 95.8216 48.2052C95.6787 48.074 95.5646 47.9147 95.4865 47.7371C95.4085 47.5596 95.3682 47.3678 95.3682 47.1738C95.3682 46.9799 95.4085 46.788 95.4865 46.6105C95.5646 46.4329 95.6787 46.2735 95.8216 46.1424C95.9645 46.0113 96.1331 45.9113 96.3167 45.8488C96.5003 45.7863 96.6949 45.7627 96.8881 45.7794H133.175C133.524 45.8095 133.849 45.9694 134.086 46.2276C134.323 46.4858 134.454 46.8234 134.454 47.1738C134.454 47.5242 134.323 47.8618 134.086 48.12C133.849 48.3782 133.524 48.5381 133.175 48.5683Z" fill="#263238"/>
<path d="M133.175 58.3347H96.8882C96.517 58.3347 96.161 58.1872 95.8985 57.9247C95.636 57.6622 95.4885 57.3062 95.4885 56.935C95.4885 56.5638 95.636 56.2078 95.8985 55.9453C96.161 55.6829 96.517 55.5354 96.8882 55.5354H133.175C133.546 55.5354 133.902 55.6829 134.165 55.9453C134.427 56.2078 134.575 56.5638 134.575 56.935C134.575 57.3062 134.427 57.6622 134.165 57.9247C133.902 58.1872 133.546 58.3347 133.175 58.3347Z" fill="#263238"/>
<path d="M133.175 68.0904H57.8642C57.5152 68.0603 57.1901 67.9003 56.9532 67.6421C56.7164 67.384 56.585 67.0463 56.585 66.696C56.585 66.3456 56.7164 66.0079 56.9532 65.7498C57.1901 65.4916 57.5152 65.3316 57.8642 65.3015H133.175C133.524 65.3316 133.849 65.4916 134.086 65.7498C134.323 66.0079 134.454 66.3456 134.454 66.696C134.454 67.0463 134.323 67.384 134.086 67.6421C133.849 67.9003 133.524 68.0603 133.175 68.0904Z" fill="#263238"/>
<path d="M133.175 77.8569H57.8642C57.493 77.8569 57.137 77.7094 56.8745 77.4469C56.6121 77.1845 56.4646 76.8285 56.4646 76.4573C56.4646 76.0861 56.6121 75.7301 56.8745 75.4676C57.137 75.2051 57.493 75.0576 57.8642 75.0576H133.175C133.546 75.0576 133.902 75.2051 134.165 75.4676C134.427 75.7301 134.574 76.0861 134.574 76.4573C134.574 76.8285 134.427 77.1845 134.165 77.4469C133.902 77.7094 133.546 77.8569 133.175 77.8569Z" fill="#263238"/>
<path d="M133.175 87.6232H57.8642C57.493 87.6232 57.137 87.4758 56.8745 87.2133C56.6121 86.9508 56.4646 86.5948 56.4646 86.2236C56.4646 85.8524 56.6121 85.4964 56.8745 85.2339C57.137 84.9714 57.493 84.824 57.8642 84.824H133.175C133.546 84.824 133.902 84.9714 134.165 85.2339C134.427 85.4964 134.574 85.8524 134.574 86.2236C134.574 86.5948 134.427 86.9508 134.165 87.2133C133.902 87.4758 133.546 87.6232 133.175 87.6232Z" fill="#263238"/>
<path d="M133.175 97.3792H57.8642C57.5152 97.3491 57.1901 97.1891 56.9532 96.931C56.7164 96.6728 56.585 96.3352 56.585 95.9848C56.585 95.6344 56.7164 95.2968 56.9532 95.0386C57.1901 94.7804 57.5152 94.6205 57.8642 94.5903H133.175C133.524 94.6205 133.849 94.7804 134.086 95.0386C134.323 95.2968 134.454 95.6344 134.454 95.9848C134.454 96.3352 134.323 96.6728 134.086 96.931C133.849 97.1891 133.524 97.3491 133.175 97.3792Z" fill="#263238"/>
<path d="M133.175 106.057H57.8642C57.5152 106.027 57.1901 105.867 56.9532 105.608C56.7164 105.35 56.585 105.013 56.585 104.662C56.585 104.312 56.7164 103.974 56.9532 103.716C57.1901 103.458 57.5152 103.298 57.8642 103.268H133.175C133.524 103.298 133.849 103.458 134.086 103.716C134.323 103.974 134.454 104.312 134.454 104.662C134.454 105.013 134.323 105.35 134.086 105.608C133.849 105.867 133.524 106.027 133.175 106.057Z" fill="#263238"/>
<path d="M133.175 115.854H57.8642C57.493 115.854 57.137 115.707 56.8745 115.444C56.6121 115.182 56.4646 114.826 56.4646 114.455C56.4646 114.083 56.6121 113.727 56.8745 113.465C57.137 113.202 57.493 113.055 57.8642 113.055H133.175C133.546 113.055 133.902 113.202 134.165 113.465C134.427 113.727 134.574 114.083 134.574 114.455C134.574 114.826 134.427 115.182 134.165 115.444C133.902 115.707 133.546 115.854 133.175 115.854Z" fill="#263238"/>
<path d="M133.175 125.579H57.8642C57.5152 125.549 57.1901 125.389 56.9532 125.131C56.7164 124.873 56.585 124.535 56.585 124.185C56.585 123.834 56.7164 123.497 56.9532 123.239C57.1901 122.98 57.5152 122.82 57.8642 122.79H133.175C133.524 122.82 133.849 122.98 134.086 123.239C134.323 123.497 134.454 123.834 134.454 124.185C134.454 124.535 134.323 124.873 134.086 125.131C133.849 125.389 133.524 125.549 133.175 125.579Z" fill="#263238"/>
<path d="M133.175 135.345H57.8642C57.493 135.345 57.137 135.198 56.8745 134.935C56.6121 134.673 56.4646 134.317 56.4646 133.946C56.4646 133.575 56.6121 133.219 56.8745 132.956C57.137 132.694 57.493 132.546 57.8642 132.546H133.175C133.546 132.546 133.902 132.694 134.165 132.956C134.427 133.219 134.574 133.575 134.574 133.946C134.574 134.317 134.427 134.673 134.165 134.935C133.902 135.198 133.546 135.345 133.175 135.345Z" fill="#263238"/>
<path d="M133.175 145.101H57.8642C57.5152 145.071 57.1901 144.911 56.9532 144.653C56.7164 144.395 56.585 144.057 56.585 143.707C56.585 143.357 56.7164 143.019 56.9532 142.761C57.1901 142.503 57.5152 142.343 57.8642 142.312H133.175C133.524 142.343 133.849 142.503 134.086 142.761C134.323 143.019 134.454 143.357 134.454 143.707C134.454 144.057 134.323 144.395 134.086 144.653C133.849 144.911 133.524 145.071 133.175 145.101Z" fill="#263238"/>
<path d="M133.175 154.868H57.8642C57.5152 154.838 57.1901 154.678 56.9532 154.419C56.7164 154.161 56.585 153.824 56.585 153.473C56.585 153.123 56.7164 152.785 56.9532 152.527C57.1901 152.269 57.5152 152.109 57.8642 152.079H133.175C133.524 152.109 133.849 152.269 134.086 152.527C134.323 152.785 134.454 153.123 134.454 153.473C134.454 153.824 134.323 154.161 134.086 154.419C133.849 154.678 133.524 154.838 133.175 154.868Z" fill="#263238"/>
<path d="M230.112 38.8122H154.833C154.462 38.8122 154.106 38.6648 153.843 38.4023C153.581 38.1398 153.433 37.7838 153.433 37.4126C153.433 37.0414 153.581 36.6854 153.843 36.4229C154.106 36.1604 154.462 36.0129 154.833 36.0129H230.112C230.484 36.0129 230.84 36.1604 231.102 36.4229C231.365 36.6854 231.512 37.0414 231.512 37.4126C231.512 37.7838 231.365 38.1398 231.102 38.4023C230.84 38.6648 230.484 38.8122 230.112 38.8122Z" fill="#263238"/>
<path d="M230.112 48.5683H154.833C154.64 48.5849 154.445 48.5613 154.262 48.4988C154.078 48.4363 153.909 48.3363 153.766 48.2052C153.624 48.074 153.509 47.9147 153.431 47.7371C153.353 47.5596 153.313 47.3678 153.313 47.1738C153.313 46.9799 153.353 46.788 153.431 46.6105C153.509 46.4329 153.624 46.2735 153.766 46.1424C153.909 46.0113 154.078 45.9113 154.262 45.8488C154.445 45.7863 154.64 45.7627 154.833 45.7794H230.112C230.306 45.7627 230.5 45.7863 230.684 45.8488C230.867 45.9113 231.036 46.0113 231.179 46.1424C231.322 46.2735 231.436 46.4329 231.514 46.6105C231.592 46.788 231.632 46.9799 231.632 47.1738C231.632 47.3678 231.592 47.5596 231.514 47.7371C231.436 47.9147 231.322 48.074 231.179 48.2052C231.036 48.3363 230.867 48.4363 230.684 48.4988C230.5 48.5613 230.306 48.5849 230.112 48.5683Z" fill="#263238"/>
<path d="M230.112 58.3347H154.833C154.462 58.3347 154.106 58.1872 153.843 57.9247C153.581 57.6622 153.433 57.3062 153.433 56.935C153.433 56.5638 153.581 56.2078 153.843 55.9453C154.106 55.6829 154.462 55.5354 154.833 55.5354H230.112C230.484 55.5354 230.84 55.6829 231.102 55.9453C231.365 56.2078 231.512 56.5638 231.512 56.935C231.512 57.3062 231.365 57.6622 231.102 57.9247C230.84 58.1872 230.484 58.3347 230.112 58.3347Z" fill="#263238"/>
<path d="M230.112 68.0905H154.833C154.64 68.1071 154.445 68.0835 154.262 68.021C154.078 67.9585 153.909 67.8585 153.766 67.7274C153.624 67.5963 153.509 67.4369 153.431 67.2593C153.353 67.0818 153.313 66.89 153.313 66.696C153.313 66.5021 153.353 66.3102 153.431 66.1327C153.509 65.9552 153.624 65.7958 153.766 65.6647C153.909 65.5335 154.078 65.4336 154.262 65.3711C154.445 65.3085 154.64 65.2849 154.833 65.3016H230.112C230.306 65.2849 230.5 65.3085 230.684 65.3711C230.867 65.4336 231.036 65.5335 231.179 65.6647C231.322 65.7958 231.436 65.9552 231.514 66.1327C231.592 66.3102 231.632 66.5021 231.632 66.696C231.632 66.89 231.592 67.0818 231.514 67.2593C231.436 67.4369 231.322 67.5963 231.179 67.7274C231.036 67.8585 230.867 67.9585 230.684 68.021C230.5 68.0835 230.306 68.1071 230.112 68.0905Z" fill="#263238"/>
<path d="M230.112 77.8569H154.833C154.462 77.8569 154.106 77.7094 153.843 77.4469C153.581 77.1845 153.433 76.8285 153.433 76.4573C153.433 76.0861 153.581 75.7301 153.843 75.4676C154.106 75.2051 154.462 75.0576 154.833 75.0576H230.112C230.484 75.0576 230.84 75.2051 231.102 75.4676C231.365 75.7301 231.512 76.0861 231.512 76.4573C231.512 76.8285 231.365 77.1845 231.102 77.4469C230.84 77.7094 230.484 77.8569 230.112 77.8569Z" fill="#263238"/>
<path d="M230.112 87.6232H154.833C154.649 87.6232 154.467 87.587 154.297 87.5167C154.128 87.4464 153.973 87.3433 153.843 87.2133C153.713 87.0833 153.61 86.929 153.54 86.7592C153.47 86.5894 153.433 86.4074 153.433 86.2236C153.433 86.0398 153.47 85.8578 153.54 85.688C153.61 85.5182 153.713 85.3639 153.843 85.2339C153.973 85.1039 154.128 85.0008 154.297 84.9305C154.467 84.8602 154.649 84.824 154.833 84.824H230.112C230.296 84.824 230.478 84.8602 230.648 84.9305C230.818 85.0008 230.972 85.1039 231.102 85.2339C231.232 85.3639 231.335 85.5182 231.406 85.688C231.476 85.8578 231.512 86.0398 231.512 86.2236C231.512 86.4074 231.476 86.5894 231.406 86.7592C231.335 86.929 231.232 87.0833 231.102 87.2133C230.972 87.3433 230.818 87.4464 230.648 87.5167C230.478 87.587 230.296 87.6232 230.112 87.6232Z" fill="#263238"/>
<path d="M230.112 97.379H154.833C154.64 97.3957 154.445 97.3721 154.262 97.3095C154.078 97.247 153.909 97.1471 153.766 97.016C153.624 96.8848 153.509 96.7255 153.431 96.5479C153.353 96.3704 153.313 96.1785 153.313 95.9846C153.313 95.7906 153.353 95.5988 153.431 95.4213C153.509 95.2437 153.624 95.0843 153.766 94.9532C153.909 94.8221 154.078 94.7221 154.262 94.6596C154.445 94.5971 154.64 94.5735 154.833 94.5901H230.112C230.306 94.5735 230.5 94.5971 230.684 94.6596C230.867 94.7221 231.036 94.8221 231.179 94.9532C231.322 95.0843 231.436 95.2437 231.514 95.4213C231.592 95.5988 231.632 95.7906 231.632 95.9846C231.632 96.1785 231.592 96.3704 231.514 96.5479C231.436 96.7255 231.322 96.8848 231.179 97.016C231.036 97.1471 230.867 97.247 230.684 97.3095C230.5 97.3721 230.306 97.3957 230.112 97.379Z" fill="#263238"/>
<path d="M231.471 103.942H154.75V157.449H231.471V103.942Z" fill="#92E3A9"/>
<path opacity="0.6" d="M231.471 103.942H154.75V157.449H231.471V103.942Z" fill="white"/>
<path d="M84.1152 41.5805C84.3279 40.931 84.4398 40.2526 84.447 39.5692C84.447 37.0706 81.9173 36.9254 79.4187 36.9254H78.7966V36.3345H89.6308V36.9254C86.8108 36.9254 85.8155 38.719 84.9031 41.4043L79.1387 58.6768C78.7033 59.952 78.3404 60.9058 76.9823 60.9058H76.8682L71.7777 44.4109L67.0086 58.6768C66.5628 59.952 66.1999 60.9058 64.8417 60.9058H64.7484L57.3459 36.9254H54.7437V36.3345H64.2715V36.9254H61.5656L67.0604 55.8464H67.2781L71.4252 43.229L69.4864 36.9254H66.8842V36.3345H76.412V36.9254H73.6957L79.2009 55.8464H79.4187L84.1152 41.5805Z" fill="#263238"/>
<path d="M258.281 30.2175H180.089V239.965H258.281V30.2175Z" fill="#92E3A9"/>
<path opacity="0.4" d="M258.281 30.2175H180.089V239.965H258.281V30.2175Z" fill="white"/>
<path d="M373.746 22.3691H185.936V260.597H373.746V22.3691Z" fill="white" stroke="#263238" stroke-width="0.71412" stroke-linecap="round" stroke-linejoin="round"/>
<path d="M373.746 22.3691H185.936V36.5832H373.746V22.3691Z" fill="#263238" stroke="#263238" stroke-width="0.71412" stroke-linecap="round" stroke-linejoin="round"/>
<path d="M315.148 56.1055H249.199V179.387H315.148V56.1055Z" fill="#92E3A9"/>
<path opacity="0.6" d="M315.148 56.1055H249.199V179.387H315.148V56.1055Z" fill="white"/>
<path d="M368.386 188.511H191.306V255.89H368.386V188.511Z" fill="#92E3A9"/>
<path opacity="0.6" d="M368.386 188.511H191.306V255.89H368.386V188.511Z" fill="white"/>
<path d="M368.386 27.9885H191.306V44.3176H368.386V27.9885Z" fill="#92E3A9"/>
<path opacity="0.6" d="M368.386 27.9885H191.306V44.3176H368.386V27.9885Z" fill="white"/>
<path d="M365.898 31.1609H194.489V38.3871H365.898V31.1609Z" fill="white"/>
<path d="M365.887 31.1609H346.479V38.3871H365.887V31.1609Z" fill="#263238" stroke="#263238" stroke-width="0.71412" stroke-linecap="round" stroke-linejoin="round"/>
<path d="M238.116 58.9462H192.924C192.731 58.9629 192.536 58.9392 192.352 58.8767C192.169 58.8142 192 58.7142 191.857 58.5831C191.714 58.452 191.6 58.2926 191.522 58.1151C191.444 57.9375 191.404 57.7457 191.404 57.5517C191.404 57.3578 191.444 57.166 191.522 56.9884C191.6 56.8109 191.714 56.6515 191.857 56.5204C192 56.3893 192.169 56.2893 192.352 56.2268C192.536 56.1643 192.731 56.1406 192.924 56.1573H238.116C238.31 56.1406 238.504 56.1643 238.688 56.2268C238.871 56.2893 239.04 56.3893 239.183 56.5204C239.326 56.6515 239.44 56.8109 239.518 56.9884C239.596 57.166 239.636 57.3578 239.636 57.5517C239.636 57.7457 239.596 57.9375 239.518 58.1151C239.44 58.2926 239.326 58.452 239.183 58.5831C239.04 58.7142 238.871 58.8142 238.688 58.8767C238.504 58.9392 238.31 58.9629 238.116 58.9462Z" fill="#263238"/>
<path d="M238.116 68.7126H192.924C192.553 68.7126 192.197 68.5651 191.934 68.3027C191.672 68.0402 191.524 67.6842 191.524 67.313C191.524 66.9417 191.672 66.5857 191.934 66.3233C192.197 66.0608 192.553 65.9133 192.924 65.9133H238.116C238.488 65.9133 238.844 66.0608 239.106 66.3233C239.369 66.5857 239.516 66.9417 239.516 67.313C239.516 67.6842 239.369 68.0402 239.106 68.3027C238.844 68.5651 238.488 68.7126 238.116 68.7126Z" fill="#263238"/>
<path d="M238.116 78.4686H192.924C192.731 78.4853 192.536 78.4617 192.352 78.3991C192.169 78.3366 192 78.2367 191.857 78.1055C191.714 77.9744 191.6 77.8151 191.522 77.6375C191.444 77.46 191.404 77.2681 191.404 77.0742C191.404 76.8802 191.444 76.6884 191.522 76.5109C191.6 76.3333 191.714 76.1739 191.857 76.0428C192 75.9117 192.169 75.8117 192.352 75.7492C192.536 75.6867 192.731 75.6631 192.924 75.6797H238.116C238.31 75.6631 238.504 75.6867 238.688 75.7492C238.871 75.8117 239.04 75.9117 239.183 76.0428C239.326 76.1739 239.44 76.3333 239.518 76.5109C239.596 76.6884 239.636 76.8802 239.636 77.0742C239.636 77.2681 239.596 77.46 239.518 77.6375C239.44 77.8151 239.326 77.9744 239.183 78.1055C239.04 78.2367 238.871 78.3366 238.688 78.3991C238.504 78.4617 238.31 78.4853 238.116 78.4686Z" fill="#263238"/>
<path d="M238.116 88.2348H192.924C192.74 88.2348 192.558 88.1986 192.388 88.1283C192.218 88.0579 192.064 87.9548 191.934 87.8249C191.804 87.6949 191.701 87.5406 191.631 87.3708C191.56 87.201 191.524 87.019 191.524 86.8352C191.524 86.6514 191.56 86.4694 191.631 86.2996C191.701 86.1297 191.804 85.9755 191.934 85.8455C192.064 85.7155 192.218 85.6124 192.388 85.5421C192.558 85.4717 192.74 85.4355 192.924 85.4355H238.116C238.488 85.4355 238.844 85.583 239.106 85.8455C239.369 86.108 239.516 86.464 239.516 86.8352C239.516 87.2064 239.369 87.5624 239.106 87.8249C238.844 88.0874 238.488 88.2348 238.116 88.2348Z" fill="#263238"/>
<path d="M238.116 97.9909H192.924C192.731 98.0075 192.536 97.9839 192.352 97.9214C192.169 97.8589 192 97.7589 191.857 97.6278C191.714 97.4967 191.6 97.3373 191.522 97.1597C191.444 96.9822 191.404 96.7904 191.404 96.5964C191.404 96.4025 191.444 96.2106 191.522 96.0331C191.6 95.8555 191.714 95.6962 191.857 95.565C192 95.4339 192.169 95.334 192.352 95.2715C192.536 95.209 192.731 95.1853 192.924 95.202H238.116C238.31 95.1853 238.504 95.209 238.688 95.2715C238.871 95.334 239.04 95.4339 239.183 95.565C239.326 95.6962 239.44 95.8555 239.518 96.0331C239.596 96.2106 239.636 96.4025 239.636 96.5964C239.636 96.7904 239.596 96.9822 239.518 97.1597C239.44 97.3373 239.326 97.4967 239.183 97.6278C239.04 97.7589 238.871 97.8589 238.688 97.9214C238.504 97.9839 238.31 98.0075 238.116 97.9909Z" fill="#263238"/>
<path d="M238.116 107.757H192.924C192.731 107.774 192.536 107.75 192.352 107.688C192.169 107.625 192 107.525 191.857 107.394C191.714 107.263 191.6 107.104 191.522 106.926C191.444 106.749 191.404 106.557 191.404 106.363C191.404 106.169 191.444 105.977 191.522 105.799C191.6 105.622 191.714 105.463 191.857 105.331C192 105.2 192.169 105.1 192.352 105.038C192.536 104.975 192.731 104.952 192.924 104.968H238.116C238.31 104.952 238.504 104.975 238.688 105.038C238.871 105.1 239.04 105.2 239.183 105.331C239.326 105.463 239.44 105.622 239.518 105.799C239.596 105.977 239.636 106.169 239.636 106.363C239.636 106.557 239.596 106.749 239.518 106.926C239.44 107.104 239.326 107.263 239.183 107.394C239.04 107.525 238.871 107.625 238.688 107.688C238.504 107.75 238.31 107.774 238.116 107.757Z" fill="#263238"/>
<path d="M238.116 117.523H192.924C192.74 117.523 192.558 117.487 192.388 117.417C192.218 117.346 192.064 117.243 191.934 117.113C191.804 116.983 191.701 116.829 191.631 116.659C191.56 116.49 191.524 116.308 191.524 116.124C191.524 115.94 191.56 115.758 191.631 115.588C191.701 115.418 191.804 115.264 191.934 115.134C192.064 115.004 192.218 114.901 192.388 114.831C192.558 114.76 192.74 114.724 192.924 114.724H238.116C238.488 114.724 238.844 114.872 239.106 115.134C239.369 115.397 239.516 115.753 239.516 116.124C239.516 116.495 239.369 116.851 239.106 117.113C238.844 117.376 238.488 117.523 238.116 117.523Z" fill="#263238"/>
<path d="M238.116 126.222H192.924C192.553 126.222 192.197 126.074 191.934 125.812C191.672 125.549 191.524 125.193 191.524 124.822C191.524 124.451 191.672 124.095 191.934 123.833C192.197 123.57 192.553 123.423 192.924 123.423H238.116C238.488 123.423 238.844 123.57 239.106 123.833C239.369 124.095 239.516 124.451 239.516 124.822C239.516 125.193 239.369 125.549 239.106 125.812C238.844 126.074 238.488 126.222 238.116 126.222Z" fill="#263238"/>
<path d="M238.116 135.957H192.924C192.731 135.974 192.536 135.95 192.352 135.888C192.169 135.825 192 135.725 191.857 135.594C191.714 135.463 191.6 135.304 191.522 135.126C191.444 134.949 191.404 134.757 191.404 134.563C191.404 134.369 191.444 134.177 191.522 133.999C191.6 133.822 191.714 133.662 191.857 133.531C192 133.4 192.169 133.3 192.352 133.238C192.536 133.175 192.731 133.152 192.924 133.168H238.116C238.31 133.152 238.504 133.175 238.688 133.238C238.871 133.3 239.04 133.4 239.183 133.531C239.326 133.662 239.44 133.822 239.518 133.999C239.596 134.177 239.636 134.369 239.636 134.563C239.636 134.757 239.596 134.949 239.518 135.126C239.44 135.304 239.326 135.463 239.183 135.594C239.04 135.725 238.871 135.825 238.688 135.888C238.504 135.95 238.31 135.974 238.116 135.957Z" fill="#263238"/>
<path d="M238.116 145.723H192.924C192.553 145.723 192.197 145.576 191.934 145.313C191.672 145.051 191.524 144.695 191.524 144.324C191.524 143.953 191.672 143.596 191.934 143.334C192.197 143.072 192.553 142.924 192.924 142.924H238.116C238.488 142.924 238.844 143.072 239.106 143.334C239.369 143.596 239.516 143.953 239.516 144.324C239.516 144.695 239.369 145.051 239.106 145.313C238.844 145.576 238.488 145.723 238.116 145.723Z" fill="#263238"/>
<path d="M238.116 155.479H192.924C192.731 155.496 192.536 155.472 192.352 155.41C192.169 155.347 192 155.247 191.857 155.116C191.714 154.985 191.6 154.826 191.522 154.648C191.444 154.471 191.404 154.279 191.404 154.085C191.404 153.891 191.444 153.699 191.522 153.522C191.6 153.344 191.714 153.185 191.857 153.054C192 152.922 192.169 152.822 192.352 152.76C192.536 152.697 192.731 152.674 192.924 152.69H238.116C238.31 152.674 238.504 152.697 238.688 152.76C238.871 152.822 239.04 152.922 239.183 153.054C239.326 153.185 239.44 153.344 239.518 153.522C239.596 153.699 239.636 153.891 239.636 154.085C239.636 154.279 239.596 154.471 239.518 154.648C239.44 154.826 239.326 154.985 239.183 155.116C239.04 155.247 238.871 155.347 238.688 155.41C238.504 155.472 238.31 155.496 238.116 155.479Z" fill="#263238"/>
<path d="M238.116 165.246H192.924C192.553 165.246 192.197 165.098 191.934 164.836C191.672 164.573 191.524 164.217 191.524 163.846C191.524 163.475 191.672 163.119 191.934 162.856C192.197 162.594 192.553 162.447 192.924 162.447H238.116C238.488 162.447 238.844 162.594 239.106 162.856C239.369 163.119 239.516 163.475 239.516 163.846C239.516 164.217 239.369 164.573 239.106 164.836C238.844 165.098 238.488 165.246 238.116 165.246Z" fill="#263238"/>
<path d="M238.116 175.002H192.924C192.731 175.018 192.536 174.995 192.352 174.932C192.169 174.87 192 174.77 191.857 174.639C191.714 174.507 191.6 174.348 191.522 174.17C191.444 173.993 191.404 173.801 191.404 173.607C191.404 173.413 191.444 173.221 191.522 173.044C191.6 172.866 191.714 172.707 191.857 172.576C192 172.445 192.169 172.345 192.352 172.282C192.536 172.22 192.731 172.196 192.924 172.213H238.116C238.31 172.196 238.504 172.22 238.688 172.282C238.871 172.345 239.04 172.445 239.183 172.576C239.326 172.707 239.44 172.866 239.518 173.044C239.596 173.221 239.636 173.413 239.636 173.607C239.636 173.801 239.596 173.993 239.518 174.17C239.44 174.348 239.326 174.507 239.183 174.639C239.04 174.77 238.871 174.87 238.688 174.932C238.504 174.995 238.31 175.018 238.116 175.002Z" fill="#263238"/>
<path d="M238.116 184.768H192.924C192.731 184.785 192.536 184.761 192.352 184.698C192.169 184.636 192 184.536 191.857 184.405C191.714 184.274 191.6 184.114 191.522 183.937C191.444 183.759 191.404 183.567 191.404 183.374C191.404 183.18 191.444 182.988 191.522 182.81C191.6 182.633 191.714 182.473 191.857 182.342C192 182.211 192.169 182.111 192.352 182.049C192.536 181.986 192.731 181.962 192.924 181.979H238.116C238.31 181.962 238.504 181.986 238.688 182.049C238.871 182.111 239.04 182.211 239.183 182.342C239.326 182.473 239.44 182.633 239.518 182.81C239.596 182.988 239.636 183.18 239.636 183.374C239.636 183.567 239.596 183.759 239.518 183.937C239.44 184.114 239.326 184.274 239.183 184.405C239.04 184.536 238.871 184.636 238.688 184.698C238.504 184.761 238.31 184.785 238.116 184.768Z" fill="#263238"/>
<path d="M368.044 58.9462H322.903C322.71 58.9629 322.515 58.9392 322.331 58.8767C322.148 58.8142 321.979 58.7142 321.836 58.5831C321.693 58.452 321.579 58.2926 321.501 58.1151C321.423 57.9375 321.383 57.7457 321.383 57.5517C321.383 57.3578 321.423 57.166 321.501 56.9884C321.579 56.8109 321.693 56.6515 321.836 56.5204C321.979 56.3893 322.148 56.2893 322.331 56.2268C322.515 56.1643 322.71 56.1406 322.903 56.1573H368.095C368.289 56.1406 368.483 56.1643 368.667 56.2268C368.85 56.2893 369.019 56.3893 369.162 56.5204C369.305 56.6515 369.419 56.8109 369.497 56.9884C369.575 57.166 369.615 57.3578 369.615 57.5517C369.615 57.7457 369.575 57.9375 369.497 58.1151C369.419 58.2926 369.305 58.452 369.162 58.5831C369.019 58.7142 368.85 58.8142 368.667 58.8767C368.483 58.9392 368.289 58.9629 368.095 58.9462H368.044Z" fill="#263238"/>
<path d="M368.044 68.7126H322.903C322.719 68.7126 322.537 68.6764 322.367 68.606C322.197 68.5357 322.043 68.4326 321.913 68.3027C321.783 68.1727 321.68 68.0184 321.61 67.8486C321.539 67.6788 321.503 67.4968 321.503 67.313C321.503 67.1292 321.539 66.9472 321.61 66.7773C321.68 66.6075 321.783 66.4532 321.913 66.3233C322.043 66.1933 322.197 66.0902 322.367 66.0199C322.537 65.9495 322.719 65.9133 322.903 65.9133H368.095C368.467 65.9133 368.823 66.0608 369.085 66.3233C369.348 66.5857 369.495 66.9417 369.495 67.313C369.495 67.6842 369.348 68.0402 369.085 68.3027C368.823 68.5651 368.467 68.7126 368.095 68.7126H368.044Z" fill="#263238"/>
<path d="M368.044 78.4686H322.903C322.71 78.4853 322.515 78.4617 322.331 78.3991C322.148 78.3366 321.979 78.2367 321.836 78.1055C321.693 77.9744 321.579 77.8151 321.501 77.6375C321.423 77.46 321.383 77.2681 321.383 77.0742C321.383 76.8802 321.423 76.6884 321.501 76.5109C321.579 76.3333 321.693 76.1739 321.836 76.0428C321.979 75.9117 322.148 75.8117 322.331 75.7492C322.515 75.6867 322.71 75.6631 322.903 75.6797H368.095C368.289 75.6631 368.483 75.6867 368.667 75.7492C368.85 75.8117 369.019 75.9117 369.162 76.0428C369.305 76.1739 369.419 76.3333 369.497 76.5109C369.575 76.6884 369.615 76.8802 369.615 77.0742C369.615 77.2681 369.575 77.46 369.497 77.6375C369.419 77.8151 369.305 77.9744 369.162 78.1055C369.019 78.2367 368.85 78.3366 368.667 78.3991C368.483 78.4617 368.289 78.4853 368.095 78.4686H368.044Z" fill="#263238"/>
<path d="M368.044 88.2348H322.903C322.719 88.2348 322.537 88.1986 322.367 88.1283C322.197 88.0579 322.043 87.9548 321.913 87.8249C321.783 87.6949 321.68 87.5406 321.61 87.3708C321.539 87.201 321.503 87.019 321.503 86.8352C321.503 86.6514 321.539 86.4694 321.61 86.2996C321.68 86.1297 321.783 85.9755 321.913 85.8455C322.043 85.7155 322.197 85.6124 322.367 85.5421C322.537 85.4717 322.719 85.4355 322.903 85.4355H368.095C368.467 85.4355 368.823 85.583 369.085 85.8455C369.348 86.108 369.495 86.464 369.495 86.8352C369.495 87.2064 369.348 87.5624 369.085 87.8249C368.823 88.0874 368.467 88.2348 368.095 88.2348H368.044Z" fill="#263238"/>
<path d="M368.044 97.9909H322.903C322.71 98.0075 322.515 97.9839 322.331 97.9214C322.148 97.8589 321.979 97.7589 321.836 97.6278C321.693 97.4967 321.579 97.3373 321.501 97.1597C321.423 96.9822 321.383 96.7904 321.383 96.5964C321.383 96.4025 321.423 96.2106 321.501 96.0331C321.579 95.8555 321.693 95.6962 321.836 95.565C321.979 95.4339 322.148 95.334 322.331 95.2715C322.515 95.209 322.71 95.1853 322.903 95.202H368.095C368.289 95.1853 368.483 95.209 368.667 95.2715C368.85 95.334 369.019 95.4339 369.162 95.565C369.305 95.6962 369.419 95.8555 369.497 96.0331C369.575 96.2106 369.615 96.4025 369.615 96.5964C369.615 96.7904 369.575 96.9822 369.497 97.1597C369.419 97.3373 369.305 97.4967 369.162 97.6278C369.019 97.7589 368.85 97.8589 368.667 97.9214C368.483 97.9839 368.289 98.0075 368.095 97.9909H368.044Z" fill="#263238"/>
<path d="M368.044 107.757H322.903C322.71 107.774 322.515 107.75 322.331 107.688C322.148 107.625 321.979 107.525 321.836 107.394C321.693 107.263 321.579 107.104 321.501 106.926C321.423 106.749 321.383 106.557 321.383 106.363C321.383 106.169 321.423 105.977 321.501 105.799C321.579 105.622 321.693 105.463 321.836 105.331C321.979 105.2 322.148 105.1 322.331 105.038C322.515 104.975 322.71 104.952 322.903 104.968H368.095C368.289 104.952 368.483 104.975 368.667 105.038C368.85 105.1 369.019 105.2 369.162 105.331C369.305 105.463 369.419 105.622 369.497 105.799C369.575 105.977 369.615 106.169 369.615 106.363C369.615 106.557 369.575 106.749 369.497 106.926C369.419 107.104 369.305 107.263 369.162 107.394C369.019 107.525 368.85 107.625 368.667 107.688C368.483 107.75 368.289 107.774 368.095 107.757H368.044Z" fill="#263238"/>
<path d="M368.044 117.523H322.903C322.719 117.523 322.537 117.487 322.367 117.417C322.197 117.346 322.043 117.243 321.913 117.113C321.783 116.983 321.68 116.829 321.61 116.659C321.539 116.49 321.503 116.308 321.503 116.124C321.503 115.94 321.539 115.758 321.61 115.588C321.68 115.418 321.783 115.264 321.913 115.134C322.043 115.004 322.197 114.901 322.367 114.831C322.537 114.76 322.719 114.724 322.903 114.724H368.095C368.467 114.724 368.823 114.872 369.085 115.134C369.348 115.397 369.495 115.753 369.495 116.124C369.495 116.495 369.348 116.851 369.085 117.113C368.823 117.376 368.467 117.523 368.095 117.523H368.044Z" fill="#263238"/>
<path d="M368.417 124.076H321.773V177.583H368.417V124.076Z" fill="#92E3A9"/>
<path opacity="0.6" d="M368.417 124.076H321.773V177.583H368.417V124.076Z" fill="white"/>
<path d="M227.903 220.972C227.623 210.438 228.442 192.461 219.194 185.058C211.077 178.558 204.763 187.38 202.492 194.493C196.966 211.755 197.557 276.718 198.988 289.802C198.988 289.802 197.578 276.698 187.283 282.317C176.988 287.936 192.467 317.432 192.467 317.432C192.467 317.432 180.295 308.537 174.676 316.022C169.057 323.508 181.705 331.947 181.705 331.947C181.705 331.947 170 328.671 170 331.947C170 335.223 173.743 338.033 184.515 339.443H242.574C242.574 339.443 251.904 334.259 250.069 328.671C248.234 323.083 238.323 326.317 238.323 326.317C238.323 326.317 253.304 308.06 252.361 300.098C251.417 292.135 232.227 301.497 232.227 301.497C232.227 301.497 247.218 263.572 244.409 246.715C242.19 233.434 231.884 242.567 226.276 247.627C227.594 238.806 228.139 229.887 227.903 220.972Z" fill="#92E3A9"/>
<path opacity="0.1" d="M227.903 220.972C227.623 210.438 228.442 192.461 219.194 185.058C211.077 178.558 204.763 187.38 202.492 194.493C196.966 211.755 197.557 276.718 198.988 289.802C198.988 289.802 197.578 276.698 187.283 282.317C176.988 287.936 192.467 317.432 192.467 317.432C192.467 317.432 180.295 308.537 174.676 316.022C169.057 323.508 181.705 331.947 181.705 331.947C181.705 331.947 170 328.671 170 331.947C170 335.223 173.743 338.033 184.515 339.443H242.574C242.574 339.443 251.904 334.259 250.069 328.671C248.234 323.083 238.323 326.317 238.323 326.317C238.323 326.317 253.304 308.06 252.361 300.098C251.417 292.135 232.227 301.497 232.227 301.497C232.227 301.497 247.218 263.572 244.409 246.715C242.19 233.434 231.884 242.567 226.276 247.627C227.594 238.806 228.139 229.887 227.903 220.972Z" fill="black"/>
<path d="M209.231 338.188L213.503 210.2" stroke="#92E3A9" stroke-width="1.64433" stroke-linecap="round" stroke-linejoin="round"/>
<path d="M211.626 285.126L233.636 264.516" stroke="#92E3A9" stroke-width="1.64433" stroke-linecap="round" stroke-linejoin="round"/>
<path d="M221.931 275.754L226.607 262.65" stroke="#92E3A9" stroke-width="1.64433" stroke-linecap="round" stroke-linejoin="round"/>
<path d="M193.369 301.041L209.905 318.676" stroke="#92E3A9" stroke-width="1.64433" stroke-linecap="round" stroke-linejoin="round"/>
<path d="M238.323 311.346L210.226 325.861" stroke="#92E3A9" stroke-width="1.64433" stroke-linecap="round" stroke-linejoin="round"/>
<path d="M224.161 318.5L233.637 319.309" stroke="#92E3A9" stroke-width="1.64433" stroke-linecap="round" stroke-linejoin="round"/>
<path d="M210.704 339.941C210.704 343.797 173.951 346.928 128.624 346.928C83.2964 346.928 46.5327 343.818 46.5327 339.941C46.5327 336.063 83.286 332.953 128.624 332.953C173.961 332.953 210.704 336.084 210.704 339.941Z" fill="#263238"/>
<path d="M87.7544 211.599C87.7544 211.599 94.0994 208.385 96.8572 211.143C99.615 213.901 98.5056 243.407 99.3351 252.78C99.8375 258.37 100.869 263.9 102.414 269.295C102.414 269.295 93.3115 267.647 86.417 264.112C86.417 264.112 80.3519 234.667 87.7544 211.599Z" fill="#263238" stroke="#263238" stroke-width="0.71412" stroke-linecap="round" stroke-linejoin="round"/>
<path d="M214.084 278.419C213.338 278.418 212.614 278.165 212.03 277.701C211.446 277.237 211.036 276.589 210.866 275.862C210.697 275.136 210.778 274.373 211.097 273.699C211.416 273.024 211.953 272.477 212.622 272.147L242.595 258.669L265.86 231.91C266.425 231.239 267.234 230.82 268.108 230.745C268.982 230.67 269.85 230.946 270.521 231.511C271.191 232.076 271.61 232.884 271.685 233.758C271.76 234.632 271.485 235.5 270.92 236.171L247.209 263.458C246.925 263.807 246.572 264.093 246.172 264.298L215.567 278.077C215.108 278.309 214.599 278.427 214.084 278.419Z" fill="white" stroke="#263238" stroke-width="0.71412" stroke-linecap="round" stroke-linejoin="round"/>
<path d="M234.581 266.735L237.868 265.242" stroke="#263238" stroke-width="0.71412" stroke-linecap="round" stroke-linejoin="round"/>
<path d="M219.424 273.629L232.414 267.719" stroke="#263238" stroke-width="0.71412" stroke-linecap="round" stroke-linejoin="round"/>
<path d="M263.849 240.65L255.192 250.437" stroke="#263238" stroke-width="0.71412" stroke-linecap="round" stroke-linejoin="round"/>
<path d="M253.792 251.836L251.833 254.065" stroke="#263238" stroke-width="0.71412" stroke-linecap="round" stroke-linejoin="round"/>
<path d="M218.076 290.306C221.742 274.844 212.18 259.337 196.717 255.67C181.254 252.004 165.747 261.567 162.081 277.029C158.414 292.492 167.977 307.999 183.44 311.665C198.902 315.332 214.41 305.769 218.076 290.306Z" fill="#92E3A9" stroke="#263238" stroke-width="0.711903" stroke-linecap="round" stroke-linejoin="round"/>
<path d="M118.163 177.168C118.163 177.168 122.31 186.893 123.181 188.791C124.051 190.688 124.881 191.206 124.684 191.808C124.487 192.409 122.372 193.104 122.372 193.104C122.666 196.096 122.146 199.112 120.869 201.833C118.795 205.98 114.752 208.147 114.358 210.749C114.126 213.252 114.091 215.768 114.254 218.276L108.137 213.258C108.137 213.258 109.837 208.344 108.334 204.736C107.06 201.783 104.788 199.372 101.917 197.924C98.3413 195.578 95.7973 191.955 94.8043 187.795C93.9023 182.974 96.7016 177.863 100.413 174.255C104.125 170.647 111.444 171.352 112.253 171.653C113.062 171.954 110.242 169.579 112.751 169.04C115.26 168.501 116.763 172.151 116.898 172.752C117.033 173.353 117.8 170.15 118.608 172.254C119.417 174.359 118.163 177.168 118.163 177.168Z" fill="white"/>
<g style="mix-blend-mode:multiply" opacity="0.5">
<path d="M110.688 215.384C110.651 214.688 110.572 213.996 110.449 213.31C110.045 211.485 112.523 205.804 113.29 199.117C114.057 192.43 108.821 183.088 108.821 183.088L104.985 171.964C103.282 172.329 101.705 173.137 100.413 174.307C96.7016 177.915 93.9023 183.026 94.8043 187.847C95.7973 192.007 98.3413 195.63 101.917 197.976C104.788 199.424 107.06 201.835 108.334 204.788C109.837 208.396 108.137 213.31 108.137 213.31L110.688 215.384Z" fill="#92E3A9"/>
</g>
<path d="M118.163 177.168C118.163 177.168 122.31 186.893 123.181 188.791C124.051 190.688 124.881 191.206 124.684 191.808C124.487 192.409 122.372 193.104 122.372 193.104C122.666 196.096 122.146 199.112 120.869 201.833C118.795 205.98 114.752 208.147 114.358 210.749C114.126 213.252 114.091 215.768 114.254 218.276L108.137 213.258C108.137 213.258 109.837 208.344 108.334 204.736C107.06 201.783 104.788 199.372 101.917 197.925C98.3413 195.578 95.7973 191.955 94.8043 187.795C93.9023 182.974 96.7016 177.863 100.413 174.255C104.125 170.647 111.444 171.352 112.253 171.653C113.062 171.954 110.242 169.579 112.751 169.04C115.26 168.501 116.763 172.151 116.898 172.752C117.033 173.353 117.8 170.15 118.608 172.254C119.417 174.359 118.163 177.168 118.163 177.168Z" stroke="#263238" stroke-width="0.71412" stroke-linecap="round" stroke-linejoin="round"/>
<path d="M118.557 182.342C118.557 182.342 116.742 181.844 116.141 183.379C115.952 183.73 115.845 184.12 115.829 184.519C115.813 184.917 115.888 185.315 116.048 185.68" stroke="#263238" stroke-width="0.71412" stroke-linecap="round" stroke-linejoin="round"/>
<path d="M120.672 197.624C120.672 197.624 118.868 198.526 117.759 197.323" stroke="#263238" stroke-width="0.71412" stroke-linecap="round" stroke-linejoin="round"/>
<path d="M117.136 189.216L108.78 192.834" stroke="#263238" stroke-width="0.71412" stroke-linecap="round" stroke-linejoin="round"/>
<path d="M105.286 197.23C104.158 198.892 103.631 200.889 103.793 202.891C104.042 206.312 103.959 210.977 102.207 210.563C100.455 210.148 103.036 204.892 103.036 202.725C102.933 201.074 102.554 199.451 101.917 197.925" stroke="#263238" stroke-width="0.71412" stroke-linecap="round" stroke-linejoin="round"/>
<path d="M123.233 186.582L121.263 187.432" stroke="#263238" stroke-width="0.71412" stroke-linecap="round" stroke-linejoin="round"/>
<path d="M120.008 188.531C120.268 189.413 120.268 190.19 120.008 190.263C119.749 190.335 119.334 189.682 119.075 188.801C118.816 187.92 118.826 187.142 119.075 187.059C119.324 186.976 119.76 187.64 120.008 188.531Z" fill="#263238"/>
<path d="M121.055 188.531C121.75 190.605 121.574 192.523 120.661 192.834C119.749 193.145 118.443 191.704 117.748 189.641C117.053 187.578 117.23 185.639 118.142 185.328C119.054 185.017 120.361 186.458 121.055 188.531Z" stroke="#263238" stroke-width="0.71412" stroke-linecap="round" stroke-linejoin="round"/>
<path d="M107.204 196.566C107.204 196.566 105.556 194.576 107.038 194.742C107.504 194.838 107.935 195.058 108.285 195.38C108.636 195.701 108.893 196.111 109.029 196.566" stroke="#263238" stroke-width="0.47608" stroke-linecap="round" stroke-linejoin="round"/>
<path d="M153.558 230.603L147.742 234.719L148.644 239.53L155.269 236.928L153.558 230.603Z" fill="white" stroke="#263238" stroke-width="0.71412" stroke-linecap="round" stroke-linejoin="round"/>
<path d="M148.343 233.517L150.956 243.241C150.956 243.241 133.372 251.266 129.899 253.744C126.426 256.222 123.678 255.548 123.678 255.548L121.377 244.309C121.377 244.309 123.875 245.512 129.194 243.21C134.513 240.909 148.343 233.517 148.343 233.517Z" fill="white" stroke="#263238" stroke-width="0.71412" stroke-linecap="round" stroke-linejoin="round"/>
<path d="M156.979 258.824C156.626 258.787 156.297 258.625 156.054 258.366C155.81 258.107 155.668 257.769 155.652 257.414L153.33 218.94C153.306 218.736 153.325 218.53 153.384 218.334C153.444 218.138 153.543 217.956 153.676 217.8C153.809 217.644 153.972 217.517 154.156 217.427C154.34 217.337 154.541 217.286 154.745 217.277C154.95 217.267 155.154 217.3 155.346 217.373C155.537 217.447 155.711 217.558 155.858 217.702C156.004 217.845 156.119 218.017 156.196 218.207C156.273 218.397 156.31 218.6 156.305 218.805L158.628 257.269C158.637 257.465 158.608 257.661 158.542 257.846C158.476 258.031 158.374 258.201 158.242 258.346C158.11 258.492 157.951 258.61 157.773 258.694C157.596 258.777 157.403 258.825 157.207 258.835L156.979 258.824Z" fill="#263238" stroke="#263238" stroke-width="0.71412" stroke-linecap="round" stroke-linejoin="round"/>
<path d="M152.552 229.691C152.183 229.675 151.833 229.523 151.569 229.264C151.305 229.005 151.147 228.657 151.125 228.288C151.104 227.919 151.219 227.555 151.45 227.266C151.681 226.978 152.011 226.785 152.376 226.726L158.192 226.021C158.394 225.98 158.602 225.981 158.803 226.025C159.004 226.068 159.194 226.153 159.361 226.273C159.528 226.393 159.668 226.547 159.773 226.724C159.878 226.901 159.945 227.098 159.97 227.302C159.995 227.506 159.977 227.714 159.919 227.911C159.86 228.108 159.761 228.291 159.628 228.448C159.495 228.605 159.331 228.733 159.147 228.824C158.962 228.915 158.761 228.966 158.555 228.976L152.739 229.681L152.552 229.691Z" fill="white" stroke="#263238" stroke-width="0.71412" stroke-linecap="round" stroke-linejoin="round"/>
<path d="M152.853 232.698C152.484 232.682 152.133 232.53 151.87 232.27C151.606 232.011 151.448 231.664 151.426 231.295C151.404 230.926 151.52 230.562 151.751 230.273C151.982 229.984 152.312 229.792 152.677 229.732L158.493 229.027C158.886 228.983 159.28 229.096 159.59 229.34C159.901 229.585 160.102 229.942 160.152 230.334C160.175 230.527 160.16 230.723 160.107 230.911C160.055 231.098 159.966 231.273 159.845 231.426C159.725 231.579 159.576 231.707 159.406 231.803C159.236 231.898 159.049 231.959 158.856 231.982L153.04 232.687L152.853 232.698Z" fill="white" stroke="#263238" stroke-width="0.71412" stroke-linecap="round" stroke-linejoin="round"/>
<path d="M153.174 235.435C152.81 235.433 152.46 235.293 152.196 235.043C151.932 234.792 151.773 234.45 151.752 234.087C151.731 233.724 151.849 233.366 152.082 233.086C152.316 232.807 152.647 232.627 153.008 232.584L158.576 231.91C158.764 231.885 158.954 231.897 159.137 231.947C159.32 231.996 159.491 232.081 159.641 232.197C159.79 232.313 159.915 232.458 160.009 232.623C160.102 232.787 160.162 232.969 160.184 233.157C160.207 233.345 160.192 233.535 160.141 233.718C160.089 233.9 160.002 234.07 159.884 234.218C159.766 234.366 159.62 234.49 159.454 234.581C159.289 234.672 159.106 234.73 158.918 234.75L153.351 235.424L153.174 235.435Z" fill="white" stroke="#263238" stroke-width="0.71412" stroke-linecap="round" stroke-linejoin="round"/>
<path d="M154.107 238.058C153.821 238.029 153.555 237.894 153.363 237.679C153.171 237.464 153.067 237.185 153.071 236.896C153.013 236.586 153.071 236.265 153.233 235.994C153.395 235.722 153.651 235.52 153.952 235.424L157.892 234.792C158.452 234.719 158.928 235.227 159.011 235.953C159.074 236.264 159.018 236.587 158.855 236.859C158.692 237.132 158.434 237.333 158.13 237.425L154.201 238.047L154.107 238.058Z" fill="white" stroke="#263238" stroke-width="0.71412" stroke-linecap="round" stroke-linejoin="round"/>
<path d="M151.972 233.32C151.954 233.603 151.834 233.87 151.634 234.07C151.433 234.271 151.166 234.391 150.883 234.408C150.576 234.492 150.249 234.46 149.964 234.319C149.68 234.177 149.457 233.936 149.338 233.641L148.426 229.764C148.301 229.214 148.768 228.675 149.463 228.551C149.768 228.472 150.091 228.506 150.373 228.647C150.655 228.788 150.877 229.026 150.997 229.318L151.92 233.206C151.92 233.206 151.961 233.278 151.972 233.32Z" fill="white" stroke="#263238" stroke-width="0.71412" stroke-linecap="round" stroke-linejoin="round"/>
<path d="M105.929 210.252C105.929 210.252 113.051 214.565 116.359 219.977C119.666 225.388 122.476 233.455 124.083 240.536C125.69 247.617 126.986 266.102 127.991 269.918C128.478 271.942 129.22 273.896 130.2 275.734C124.396 277.888 118.234 278.909 112.046 278.74C102.217 278.336 100.714 275.931 100.714 275.931C100.714 275.931 97.4067 254.076 97.7073 236.72C98.008 219.365 105.929 210.252 105.929 210.252Z" fill="white"/>
<g style="mix-blend-mode:multiply" opacity="0.5">
<path d="M101.73 229.898C101.73 229.898 100.693 231.526 101.523 227.265C102.194 224.284 103.286 221.415 104.768 218.743L109.63 224.217L112.678 224.424L111.87 225.845L117.748 229.494L114.959 226.207L115.156 221.19L110.449 222.641C110.449 222.641 107.401 217.167 106.592 215.384C106.053 214.16 107.857 213.123 109.122 212.574C108.097 211.776 107.031 211.032 105.929 210.345C105.929 210.345 98.008 219.468 97.7073 236.814C97.4688 250.571 99.5009 267.149 100.351 273.432L115.903 272.572L101.73 229.898Z" fill="#92E3A9"/>
</g>
<path d="M105.929 210.252C105.929 210.252 113.051 214.565 116.359 219.977C119.666 225.388 122.476 233.455 124.083 240.536C125.69 247.617 126.986 266.102 127.991 269.918C128.478 271.942 129.22 273.896 130.2 275.734C124.396 277.888 118.234 278.909 112.046 278.74C102.217 278.336 100.714 275.931 100.714 275.931C100.714 275.931 97.4067 254.076 97.7073 236.72C98.008 219.365 105.929 210.252 105.929 210.252Z" stroke="#263238" stroke-width="0.71412" stroke-linecap="round" stroke-linejoin="round"/>
<path d="M103.824 213.766L111.248 222.683L115.156 221.179L114.959 226.197L120.869 233.32" stroke="#263238" stroke-width="0.71412" stroke-linecap="round" stroke-linejoin="round"/>
<path d="M99.2625 232.667C99.2625 232.667 100.092 240.961 102.57 242.93" stroke="#263238" stroke-width="0.47608" stroke-linecap="round" stroke-linejoin="round"/>
<path d="M99.7603 241.614C99.7603 241.614 100.797 244.724 103.399 245.761" stroke="#263238" stroke-width="0.47608" stroke-linecap="round" stroke-linejoin="round"/>
<path d="M121.284 237.135L116.981 238.794L117.644 240.619L121.615 239.126" stroke="#263238" stroke-width="0.47608" stroke-linecap="round" stroke-linejoin="round"/>
<path d="M150.302 268.373C149.947 268.372 149.603 268.244 149.333 268.012C149.063 267.78 148.885 267.46 148.83 267.108L143.46 232.231C143.431 232.037 143.44 231.839 143.487 231.649C143.534 231.458 143.618 231.279 143.735 231.121C143.851 230.963 143.998 230.83 144.166 230.729C144.334 230.627 144.52 230.56 144.714 230.531C144.908 230.502 145.106 230.511 145.297 230.558C145.487 230.605 145.666 230.689 145.824 230.806C145.982 230.922 146.116 231.069 146.217 231.237C146.318 231.405 146.385 231.591 146.415 231.785L151.785 266.662C151.842 267.054 151.742 267.452 151.507 267.77C151.272 268.088 150.921 268.301 150.531 268.362L150.302 268.373Z" fill="#263238" stroke="#263238" stroke-width="0.71412" stroke-linecap="round" stroke-linejoin="round"/>
<path d="M118.163 177.169C118.163 177.169 119.365 174.359 118.567 172.254C117.769 170.15 116.96 173.353 116.857 172.752C116.753 172.151 115.26 168.543 112.709 169.04C110.159 169.538 113.01 171.954 112.212 171.653C111.413 171.352 104.084 170.616 100.372 174.255C96.6603 177.894 93.8611 182.975 94.7631 187.795C95.756 191.955 98.3001 195.578 101.875 197.925C103.752 198.887 105.389 200.258 106.665 201.937C107.743 201.071 108.726 200.095 109.599 199.024C109.078 199.19 108.525 199.232 107.985 199.145C107.445 199.059 106.932 198.847 106.489 198.526C104.882 197.417 104.084 194.213 106.095 192.606C108.106 190.999 110.045 194.648 110.045 194.648C112.118 195.758 111.341 192.844 110.543 191.538C109.744 190.232 110.843 188.822 111.144 186.925C111.445 185.027 108.842 184.312 109.143 182.404C109.444 180.497 118.163 177.169 118.163 177.169Z" fill="#263238" stroke="#263238" stroke-width="0.71412" stroke-linecap="round" stroke-linejoin="round"/>
<path d="M113.331 178.516C113.331 178.516 109.692 176.692 107.37 179.553C105.048 182.415 105.556 187.173 103.731 189.983C103.304 190.757 102.711 191.426 101.994 191.943C101.276 192.459 100.453 192.81 99.584 192.969" stroke="white" stroke-width="0.47608" stroke-linecap="round" stroke-linejoin="round"/>
<path d="M97.4377 187.961C98.5338 188.079 99.6324 187.763 100.499 187.081C101.365 186.399 101.929 185.405 102.072 184.312C102.901 180.165 107.536 174.214 112.181 174.048C116.825 173.882 116.483 177.158 116.483 177.158" stroke="white" stroke-width="0.47608" stroke-linecap="round" stroke-linejoin="round"/>
<path d="M137.519 245.647L140.422 243.739C140.422 243.739 142.931 239.126 143.128 238.825C143.325 238.524 149.452 235.518 149.95 235.922C150.232 236.169 150.451 236.478 150.59 236.826C150.729 237.174 150.783 237.55 150.748 237.923C150.551 238.431 149.846 238.96 149.846 239.437C149.846 239.914 150.655 243.739 150.655 244.745C150.655 245.751 146.508 247.451 144.839 247.959C143.169 248.467 140.93 248.457 140.422 248.861L139.022 249.96L137.519 245.647Z" fill="white" stroke="#263238" stroke-width="0.71412" stroke-linecap="round" stroke-linejoin="round"/>
<path d="M103.824 225.399C103.824 225.399 101.222 226.094 102.124 233.413C103.026 240.733 110.346 265.397 112.948 268.414C115.55 271.431 140.941 254.573 140.941 254.573L137.83 244.942C137.83 244.942 120.682 251.66 119.283 251.961C117.883 252.261 113.86 230.407 112.461 227.701" fill="white"/>
<g style="mix-blend-mode:multiply" opacity="0.5">
<path d="M140.474 253.174C135.197 254.843 122.984 258.648 121.397 258.482C119.324 258.285 118.764 257.062 117.541 255.444C116.317 253.827 114.503 260.307 112.875 260.918C111.247 261.53 112.471 253.661 113.083 251.992C113.694 250.323 111.662 252.811 111.662 252.811C111.662 252.811 107.608 244.517 105.576 238.815C104.288 235.092 103.273 231.28 102.539 227.41L102.082 228.53C101.853 230.136 101.853 231.766 102.082 233.372C102.984 240.691 110.304 265.356 112.906 268.373C115.509 271.39 140.899 254.532 140.899 254.532L140.474 253.174Z" fill="#92E3A9"/>
</g>
<path d="M103.824 225.399C103.824 225.399 101.222 226.094 102.124 233.413C103.026 240.733 110.346 265.397 112.948 268.414C115.55 271.431 140.941 254.573 140.941 254.573L137.83 244.942C137.83 244.942 120.682 251.66 119.283 251.961C117.883 252.261 113.86 230.407 112.461 227.701" stroke="#263238" stroke-width="0.71412" stroke-linecap="round" stroke-linejoin="round"/>
<path d="M119.272 251.961C118.25 252.622 117.373 253.484 116.694 254.494C116.015 255.505 115.548 256.643 115.322 257.839" stroke="#263238" stroke-width="0.47608" stroke-linecap="round" stroke-linejoin="round"/>
<path d="M115.488 254.19C114.791 254.885 114.242 255.713 113.871 256.625C113.501 257.537 113.317 258.514 113.331 259.498" stroke="#263238" stroke-width="0.47608" stroke-linecap="round" stroke-linejoin="round"/>
<path d="M89.6413 262.339C89.6413 262.339 86.8835 253.143 87.2464 234.025C87.6093 214.907 88.7186 213.072 87.7959 211.6C86.8732 210.127 70.1709 219.966 57.7297 234.305C49.8088 243.47 39.69 257.041 39.0265 278.419C38.477 295.515 46.6052 309.335 51.7061 313.161C60.529 319.776 72.5762 319.319 73.8618 319.319H196.988C196.988 319.319 204.888 316.562 206.723 309.398C208.558 302.233 214.81 281.82 201.767 257.373C193.204 241.334 177.87 224.103 175.288 225.388C172.707 226.674 163.065 245.087 149.929 256.637C137.519 267.554 113.902 275.568 89.6413 262.339Z" fill="#92E3A9" stroke="#263238" stroke-width="0.71412" stroke-linecap="round" stroke-linejoin="round"/>
<path d="M201.799 257.373C199.964 253.951 197.828 250.478 195.578 247.14C188.383 249.618 170.343 257.02 160.328 271.804C151.733 284.494 157.446 304.628 175.361 319.319H196.998C196.998 319.319 204.899 316.561 206.734 309.387C208.569 302.213 214.81 281.819 201.799 257.373Z" fill="white" stroke="#263238" stroke-width="0.71412" stroke-linecap="round" stroke-linejoin="round"/>
<path d="M205.749 296.054C205.555 297.852 205.268 299.694 204.888 301.58" stroke="#263238" stroke-width="0.71412" stroke-linecap="round" stroke-linejoin="round"/>
<path d="M199.58 260.493C199.58 260.493 207.034 273.339 206.08 292.073" stroke="#263238" stroke-width="0.71412" stroke-linecap="round" stroke-linejoin="round"/>
<path d="M86.7177 316.707V298.325C77.1276 295.214 70.9381 291.524 65.1633 288.061C56.8692 283.095 51.0633 269.71 54.9616 261.043C58.5384 253.039 68.4395 249.462 73.7063 253.039C78.8462 256.416 84.1544 259.531 89.6102 262.37C89.6102 262.37 86.8524 253.174 87.2153 234.056C87.5782 214.938 88.6875 213.103 87.7648 211.631C86.8421 210.158 70.1398 219.997 57.6986 234.336C49.8088 243.47 39.69 257.041 39.0265 278.419C38.477 295.515 46.6052 309.335 51.7061 313.161C60.529 319.775 72.5762 319.319 73.8618 319.319H86.7177C86.7177 318.376 86.7177 317.495 86.7177 316.707Z" fill="white" stroke="#263238" stroke-width="0.71412" stroke-linecap="round" stroke-linejoin="round"/>
<path d="M42.9351 282.017C43.029 284.28 43.2714 286.534 43.6608 288.766" stroke="#263238" stroke-width="0.71412" stroke-linecap="round" stroke-linejoin="round"/>
<path d="M72.5761 225.482C69.5903 228.157 65.1322 231.298 62.364 234.502C54.4328 243.667 43.5986 256.761 42.9143 278.139" stroke="#263238" stroke-width="0.71412" stroke-linecap="round" stroke-linejoin="round"/>
<path d="M115.374 317.111C115.374 327.219 99.8225 328.142 80.5387 328.142C61.2548 328.142 45.7034 327.769 45.7034 317.111C45.7034 302.389 61.2548 288.082 80.5387 288.082C99.8225 288.082 115.374 302.389 115.374 317.111Z" fill="#92E3A9" stroke="#263238" stroke-width="0.71412" stroke-linecap="round" stroke-linejoin="round"/>
<path d="M80.4971 288.071C62.6959 288.071 48.036 300.326 45.9314 313.814C48.0049 322.305 62.6959 322.627 80.4971 322.627C98.2984 322.627 112.917 321.839 115.052 313.752C112.958 300.284 98.3087 288.071 80.4971 288.071Z" fill="#263238" stroke="#263238" stroke-width="0.71412" stroke-linecap="round" stroke-linejoin="round"/>
<path d="M205.437 318.189C205.437 327.344 191.317 328.184 173.899 328.184C156.481 328.184 142.35 327.852 142.35 318.189C142.35 304.867 156.471 291.886 173.899 291.886C191.327 291.886 205.437 304.867 205.437 318.189Z" fill="#92E3A9" stroke="#263238" stroke-width="0.71412" stroke-linecap="round" stroke-linejoin="round"/>
<path d="M173.899 291.886C157.778 291.886 144.497 302.99 142.599 315.214C144.497 322.896 157.778 323.186 173.899 323.186C190.021 323.186 203.25 322.471 205.189 315.151C203.25 302.959 189.99 291.886 173.899 291.886Z" fill="#263238" stroke="#263238" stroke-width="0.71412" stroke-linecap="round" stroke-linejoin="round"/>
<path d="M296.704 209.163C295.471 208.702 294.472 207.77 293.926 206.573C293.379 205.375 293.331 204.01 293.791 202.777L307.787 165.36C308.015 164.747 308.362 164.185 308.807 163.707C309.252 163.228 309.787 162.841 310.381 162.569C310.976 162.297 311.618 162.145 312.272 162.121C312.925 162.098 313.576 162.203 314.189 162.431C314.802 162.659 315.364 163.005 315.842 163.451C316.321 163.896 316.707 164.431 316.979 165.025C317.251 165.62 317.404 166.262 317.427 166.915C317.451 167.569 317.346 168.22 317.118 168.833L303.122 206.25C302.893 206.864 302.546 207.427 302.099 207.906C301.653 208.385 301.116 208.771 300.519 209.042C299.923 209.313 299.279 209.463 298.624 209.484C297.969 209.505 297.317 209.396 296.704 209.163Z" fill="white" stroke="#263238" stroke-width="0.71412" stroke-linecap="round" stroke-linejoin="round"/>
<path d="M312.815 172.099L304.957 192.751" stroke="#263238" stroke-width="0.71412" stroke-linecap="round" stroke-linejoin="round"/>
<path d="M275.409 266.185C274.323 265.78 273.327 265.166 272.479 264.376C271.631 263.586 270.946 262.637 270.465 261.583C269.984 260.529 269.715 259.39 269.674 258.232C269.632 257.073 269.82 255.918 270.225 254.833L290.204 201.408C291.028 199.215 292.691 197.44 294.825 196.473C296.958 195.505 299.389 195.425 301.582 196.25C303.775 197.075 305.55 198.737 306.518 200.871C307.485 203.005 307.565 205.436 306.74 207.629L286.72 261.001C285.902 263.185 284.253 264.955 282.134 265.927C280.014 266.898 277.597 266.991 275.409 266.185Z" fill="#263238" stroke="#263238" stroke-width="0.71412" stroke-linecap="round" stroke-linejoin="round"/>
<path d="M349.569 69.3865C339.608 65.6618 328.767 64.9744 318.416 67.4111C308.065 69.8478 298.669 75.2992 291.416 83.076C284.163 90.8527 279.379 100.606 277.669 111.101C275.959 121.597 277.4 132.364 281.809 142.041C286.219 151.717 293.398 159.869 302.441 165.466C311.483 171.062 321.982 173.851 332.609 173.481C343.237 173.111 353.516 169.597 362.146 163.385C370.777 157.173 377.372 148.54 381.097 138.58C386.089 125.223 385.572 110.431 379.659 97.4554C373.747 84.4798 362.924 74.3834 349.569 69.3865ZM315.159 161.389C306.924 158.308 299.787 152.854 294.652 145.717C289.517 138.58 286.613 130.081 286.308 121.294C286.003 112.507 288.311 103.827 292.939 96.3508C297.567 88.8751 304.308 82.9396 312.309 79.2949C320.31 75.6501 329.213 74.4598 337.891 75.8745C346.569 77.2891 354.632 81.2452 361.062 87.2424C367.491 93.2396 371.998 101.009 374.012 109.567C376.026 118.126 375.457 127.089 372.378 135.325C368.245 146.368 359.895 155.317 349.165 160.205C338.435 165.092 326.203 165.518 315.159 161.389Z" fill="#263238" stroke="#263238" stroke-width="0.71412" stroke-linecap="round" stroke-linejoin="round"/>
<path d="M294.682 103.413C296.84 98.6564 299.919 94.3747 303.741 90.8156C307.564 87.2565 312.054 84.4905 316.952 82.6777" stroke="#263238" stroke-width="0.71412" stroke-linecap="round" stroke-linejoin="round"/>
<path d="M291.126 119.877C291.115 115.844 291.724 111.833 292.93 107.985" stroke="#263238" stroke-width="0.71412" stroke-linecap="round" stroke-linejoin="round"/>
<path d="M279.763 130.846C277.086 118.515 278.969 105.632 285.063 94.5825C291.156 83.5333 301.048 75.0672 312.906 70.7524C324.763 66.4376 337.783 66.5665 349.553 71.1153C361.322 75.6641 371.045 84.3245 376.918 95.4922" stroke="white" stroke-width="0.95216" stroke-miterlimit="10"/>
<path d="M382.538 113.532C384.057 125.956 381.06 138.512 374.092 148.909C367.124 159.307 356.651 166.853 344.582 170.17C332.513 173.488 319.654 172.356 308.351 166.981C297.047 161.606 288.053 152.347 283.008 140.892" stroke="white" stroke-width="0.95216" stroke-miterlimit="10"/>
<path d="M379.013 100.002C380.366 103.301 381.377 106.73 382.03 110.235" stroke="white" stroke-width="0.95216" stroke-miterlimit="10"/>
<path d="M121.968 303.042C130.23 303.042 136.928 296.344 136.928 288.082C136.928 279.819 130.23 273.121 121.968 273.121C113.705 273.121 107.007 279.819 107.007 288.082C107.007 296.344 113.705 303.042 121.968 303.042Z" fill="#263238"/>
<path d="M121.968 300.709C128.942 300.709 134.595 295.056 134.595 288.082C134.595 281.108 128.942 275.454 121.968 275.454C114.994 275.454 109.34 281.108 109.34 288.082C109.34 295.056 114.994 300.709 121.968 300.709Z" fill="white" stroke="#263238" stroke-width="0.71412" stroke-linecap="round" stroke-linejoin="round"/>
<path d="M118.132 291.814C118.022 291.702 117.961 291.551 117.961 291.394C117.961 291.237 118.022 291.087 118.132 290.974L121.553 287.553C121.665 287.443 121.816 287.382 121.973 287.382C122.13 287.382 122.28 287.443 122.393 287.553C122.45 287.608 122.495 287.674 122.526 287.747C122.557 287.82 122.573 287.899 122.573 287.978C122.573 288.057 122.557 288.136 122.526 288.209C122.495 288.282 122.45 288.348 122.393 288.403L118.982 291.814C118.927 291.871 118.861 291.917 118.788 291.948C118.714 291.979 118.636 291.994 118.557 291.994C118.477 291.994 118.399 291.979 118.326 291.948C118.253 291.917 118.187 291.871 118.132 291.814Z" fill="#263238"/>
<path d="M112.927 297.019C112.825 296.922 112.744 296.805 112.688 296.676C112.633 296.547 112.604 296.407 112.604 296.267C112.604 296.126 112.633 295.987 112.688 295.858C112.744 295.729 112.825 295.612 112.927 295.515L117.8 290.642C117.897 290.539 118.014 290.456 118.144 290.4C118.274 290.343 118.415 290.314 118.557 290.314C118.698 290.314 118.839 290.343 118.969 290.4C119.099 290.456 119.216 290.539 119.313 290.642C119.415 290.739 119.497 290.856 119.552 290.985C119.607 291.114 119.636 291.253 119.636 291.394C119.636 291.535 119.607 291.674 119.552 291.803C119.497 291.932 119.415 292.049 119.313 292.146L114.441 297.019C114.344 297.122 114.226 297.205 114.096 297.261C113.966 297.318 113.826 297.347 113.684 297.347C113.542 297.347 113.402 297.318 113.271 297.261C113.141 297.205 113.024 297.122 112.927 297.019Z" fill="#263238"/>
<path d="M130.946 288.289C131.856 287.38 132.476 286.222 132.728 284.961C132.98 283.7 132.851 282.392 132.36 281.204C131.868 280.015 131.035 278.999 129.966 278.284C128.896 277.57 127.639 277.188 126.353 277.188C125.067 277.188 123.81 277.57 122.74 278.284C121.671 278.999 120.838 280.015 120.346 281.204C119.855 282.392 119.727 283.7 119.978 284.961C120.23 286.222 120.85 287.38 121.76 288.289C122.979 289.506 124.631 290.189 126.353 290.189C128.075 290.189 129.727 289.506 130.946 288.289Z" fill="#263238"/>
<path d="M129.702 287.034C130.361 286.373 130.81 285.53 130.991 284.614C131.172 283.697 131.078 282.747 130.719 281.884C130.361 281.021 129.755 280.284 128.978 279.765C128.201 279.247 127.287 278.97 126.353 278.97C125.419 278.97 124.505 279.247 123.728 279.765C122.951 280.284 122.345 281.021 121.987 281.884C121.629 282.747 121.534 283.697 121.715 284.614C121.896 285.53 122.345 286.373 123.004 287.034C123.444 287.475 123.965 287.825 124.54 288.064C125.115 288.302 125.731 288.425 126.353 288.425C126.975 288.425 127.591 288.302 128.166 288.064C128.741 287.825 129.263 287.475 129.702 287.034Z" fill="white"/>
<path d="M307.549 234.73C307.549 236.047 307.025 237.31 306.094 238.241C305.163 239.173 303.9 239.696 302.582 239.696H267.571C266.9 239.726 266.231 239.621 265.602 239.385C264.973 239.15 264.399 238.789 263.914 238.326C263.428 237.862 263.042 237.305 262.778 236.688C262.514 236.07 262.378 235.406 262.378 234.735C262.378 234.064 262.514 233.399 262.778 232.782C263.042 232.165 263.428 231.608 263.914 231.144C264.399 230.68 264.973 230.32 265.602 230.084C266.231 229.849 266.9 229.743 267.571 229.774H302.582C303.898 229.774 305.159 230.296 306.09 231.225C307.021 232.154 307.546 233.414 307.549 234.73Z" fill="#92E3A9" stroke="#263238" stroke-width="0.71412" stroke-linecap="round" stroke-linejoin="round"/>
<path d="M286.595 238.161C288.119 238.161 289.353 236.927 289.353 235.404C289.353 233.88 288.119 232.646 286.595 232.646C285.072 232.646 283.838 233.88 283.838 235.404C283.838 236.927 285.072 238.161 286.595 238.161Z" fill="white" stroke="#263238" stroke-width="0.71412" stroke-linecap="round" stroke-linejoin="round"/>
<path d="M244.679 267.771C248.39 267.771 251.397 264.764 251.397 261.053C251.397 257.343 248.39 254.335 244.679 254.335C240.969 254.335 237.961 257.343 237.961 261.053C237.961 264.764 240.969 267.771 244.679 267.771Z" fill="#92E3A9" stroke="#263238" stroke-width="0.71412" stroke-linecap="round" stroke-linejoin="round"/>
<path d="M247.199 261.053C247.201 260.554 247.055 260.066 246.779 259.651C246.503 259.235 246.111 258.91 245.651 258.718C245.19 258.526 244.684 258.475 244.194 258.571C243.705 258.667 243.255 258.906 242.901 259.258C242.548 259.61 242.307 260.058 242.209 260.547C242.111 261.036 242.16 261.544 242.351 262.004C242.541 262.465 242.864 262.859 243.278 263.137C243.693 263.414 244.18 263.562 244.679 263.562C245.346 263.562 245.985 263.298 246.457 262.828C246.929 262.358 247.196 261.719 247.199 261.053Z" fill="white" stroke="#263238" stroke-width="0.71412" stroke-linecap="round" stroke-linejoin="round"/>
<path d="M267.571 241.572C271.281 241.572 274.289 238.565 274.289 234.854C274.289 231.144 271.281 228.136 267.571 228.136C263.861 228.136 260.853 231.144 260.853 234.854C260.853 238.565 263.861 241.572 267.571 241.572Z" fill="#92E3A9" stroke="#263238" stroke-width="0.71412" stroke-linecap="round" stroke-linejoin="round"/>
<path d="M267.571 237.446C269.002 237.446 270.163 236.286 270.163 234.854C270.163 233.423 269.002 232.262 267.571 232.262C266.139 232.262 264.979 233.423 264.979 234.854C264.979 236.286 266.139 237.446 267.571 237.446Z" fill="white" stroke="#263238" stroke-width="0.71412" stroke-linecap="round" stroke-linejoin="round"/>
</svg>
