<svg xmlns="http://www.w3.org/2000/svg" xmlns:xlink="http://www.w3.org/1999/xlink" width="500" zoomAndPan="magnify" viewBox="0 0 375 374.999991" height="500" preserveAspectRatio="xMidYMid meet" version="1.0"><defs><clipPath id="id1"><path d="M 23.203125 20 L 344.953125 20 L 344.953125 353 L 23.203125 353 Z M 23.203125 20 " clip-rule="nonzero"/></clipPath><clipPath id="id2"><path d="M 96.640625 66 L 292.390625 66 L 292.390625 281.832031 L 96.640625 281.832031 Z M 96.640625 66 " clip-rule="nonzero"/></clipPath></defs><g clip-path="url(#id1)"><path fill="#ffffff" d="M 280.855469 277.390625 C 279.972656 277.996094 278.980469 278.769531 277.914062 279.554688 C 278.894531 278.835938 279.847656 278.121094 280.855469 277.390625 Z M 341.261719 131.167969 C 341.96875 135.289062 342.863281 138.816406 343.015625 142.003906 C 343.238281 145.1875 343.390625 147.902344 343.472656 150.234375 C 343.804688 154.867188 343.070312 158.007812 342.742188 160.0625 C 341.855469 164.1875 340.726562 164.171875 339.578125 164.214844 C 338.972656 164.226562 338.804688 158.269531 338.390625 153.335938 C 337.6875 148.425781 337.121094 144.511719 337.121094 148.511719 C 336.613281 145.585938 336.433594 142.363281 335.535156 139.175781 C 334.734375 135.976562 333.890625 132.683594 333.078125 129.457031 C 332.125 126.273438 330.867188 123.238281 329.859375 120.359375 C 329.324219 118.9375 328.8125 117.558594 328.328125 116.25 C 327.75 114.96875 327.128906 113.796875 326.589844 112.691406 C 322.171875 103.855469 320.171875 100.558594 324.585938 111.4375 C 325.113281 113.339844 326.617188 116.402344 327.761719 120.386719 C 328.992188 124.328125 330.867188 128.835938 331.78125 133.621094 C 332.332031 135.976562 332.882812 138.335938 333.410156 140.609375 C 333.917969 142.886719 334.042969 145.144531 334.304688 147.1875 C 334.707031 151.28125 335.105469 154.644531 334.636719 156.617188 C 333.296875 164.324219 330.828125 149.363281 329.503906 157.015625 C 330.082031 164.40625 330.082031 179.296875 328.410156 186.5625 C 326.246094 193.621094 326.066406 178.855469 325.03125 186.050781 C 321.398438 207.285156 309.957031 234.707031 289.566406 255.246094 C 289.152344 254.847656 287.386719 255.8125 287.027344 255.453125 C 286.847656 255.289062 287.027344 254.777344 287.910156 253.621094 C 288.640625 252.488281 289.980469 250.726562 292.230469 248.023438 C 312.703125 225.136719 323.757812 194.199219 322.476562 163.425781 C 321.441406 132.640625 308.023438 102.640625 285.769531 81.273438 C 263.765625 59.628906 233.121094 47.453125 202.324219 47.507812 C 171.511719 47.355469 140.992188 59.597656 119.042969 81.066406 C 96.847656 102.285156 83.496094 132.089844 82.488281 162.640625 C 81.234375 193.179688 92.261719 223.839844 112.652344 246.453125 C 122.785156 257.8125 135.027344 267.253906 148.597656 274.011719 C 162.167969 280.792969 177.0625 284.929688 192.175781 286.15625 C 222.476562 288.734375 253.480469 279.332031 277.085938 260.347656 C 282.304688 255.8125 285.382812 253.386719 286.832031 252.519531 C 288.367188 251.414062 288.074219 252.394531 286.75 254.128906 C 285.398438 255.910156 282.941406 258.75 279.863281 262.183594 C 278.289062 263.835938 276.34375 265.378906 274.421875 267.117188 C 273.015625 268.261719 271.675781 269.613281 270.214844 270.800781 C 274.230469 268.042969 275.484375 268.386719 280.332031 264.332031 C 280.871094 264.996094 278.675781 268 273.292969 273.210938 C 270.570312 275.777344 266.679688 278.328125 262.082031 281.566406 C 259.667969 282.972656 256.945312 284.351562 254.035156 285.867188 C 251.175781 287.507812 247.878906 288.722656 244.34375 290.003906 L 249.660156 288.15625 C 251.4375 287.535156 253.082031 286.613281 254.808594 285.867188 C 258.160156 284.199219 261.722656 282.917969 264.882812 280.835938 C 271.648438 277.511719 265.753906 282.324219 266.277344 283.332031 C 263.046875 285.441406 259.417969 286.777344 256.878906 288.128906 C 254.296875 289.410156 252.613281 290.347656 252.710938 290.609375 C 252.929688 291.132812 253.371094 292.195312 253.59375 292.71875 C 255.359375 291.894531 257.597656 290.871094 260.039062 289.726562 C 262.484375 288.613281 265.1875 287.425781 267.660156 285.828125 C 270.199219 284.335938 272.726562 282.835938 275.058594 281.46875 C 276.09375 280.863281 277.03125 280.203125 277.914062 279.554688 C 277.351562 279.96875 276.757812 280.394531 276.21875 280.792969 C 274.644531 281.746094 273.179688 282.628906 271.925781 283.398438 C 269.425781 284.957031 267.8125 286.074219 267.949219 286.324219 C 268.226562 286.820312 268.777344 287.824219 269.054688 288.320312 C 262.234375 292.527344 252.957031 296.496094 243.378906 299.40625 C 241.03125 300.300781 238.546875 300.730469 236.15625 301.308594 C 233.757812 301.875 231.382812 302.441406 229.0625 302.976562 C 224.398438 303.847656 219.925781 304.382812 215.976562 305.128906 L 216.15625 306.824219 C 220.1875 306.355469 224.742188 305.914062 229.476562 305.046875 C 231.824219 304.480469 234.238281 303.902344 236.667969 303.308594 C 239.097656 302.6875 241.597656 302.207031 243.957031 301.253906 C 253.605469 298.082031 262.855469 293.824219 269.894531 289.8125 C 266.582031 292.222656 264.761719 293.148438 264.027344 293.945312 C 263.253906 294.691406 263.433594 295.078125 263.683594 295.585938 L 255.316406 299.585938 L 246.550781 302.632812 L 242.148438 304.109375 L 237.636719 305.15625 L 228.605469 307.195312 L 219.425781 308.464844 C 217.910156 308.65625 216.390625 308.933594 214.84375 309.085938 L 210.234375 309.347656 C 207.15625 309.554688 204.078125 309.761719 200.984375 309.96875 C 197.894531 309.953125 194.800781 309.96875 191.695312 310.023438 L 197.894531 310.324219 C 199.949219 310.4375 202.019531 310.546875 204.078125 310.378906 C 208.203125 310.144531 212.34375 310.089844 216.460938 309.675781 C 214.445312 310.339844 212 310.585938 209.238281 310.972656 C 206.480469 311.261719 203.386719 311.746094 200.058594 311.71875 C 196.746094 311.675781 193.183594 311.550781 189.484375 311.386719 C 185.785156 311.195312 182.003906 310.410156 178.125 309.882812 C 162.652344 307.238281 146.96875 301.238281 135.746094 295.738281 C 126.152344 291.21875 116.929688 285.261719 108.359375 278.148438 C 85.265625 302.910156 62.058594 328.578125 37.113281 351.273438 C 33.734375 353.851562 34.355469 350.003906 35.375 346.558594 C 35.03125 347.703125 33.816406 346.488281 33.46875 347.644531 C 32.269531 346.433594 31.730469 342.917969 34.3125 339.539062 C 33.566406 340.285156 32.820312 341.027344 32.078125 341.773438 C 30.929688 342.117188 30.863281 340.558594 30.046875 339.761719 C 30.792969 339.015625 31.550781 338.269531 31.136719 337.859375 C 30.738281 337.457031 29.921875 336.660156 29.523438 336.246094 C 28.777344 336.988281 27.285156 338.476562 26.539062 339.222656 C 27.285156 338.476562 28.03125 337.734375 27.632812 337.332031 C 27.21875 336.933594 26.417969 336.121094 26.015625 335.722656 C 27.09375 333.832031 30.144531 332.398438 31.234375 330.507812 L 30.019531 329.296875 C 28.113281 330.386719 26.292969 333.019531 24.800781 334.507812 C 25.148438 333.363281 24.734375 332.964844 23.933594 332.148438 C 25.753906 329.515625 29.203125 328.496094 30.226562 325.050781 C 29.480469 325.792969 28.734375 326.539062 27.988281 327.285156 C 27.464844 323.769531 32.808594 321.671875 34.628906 319.039062 C 40.675781 310.324219 51.429688 303.058594 57.667969 294.414062 C 65 283.867188 74.675781 274.191406 83.621094 265.269531 C 84.4375 266.070312 84.90625 268.027344 86.050781 267.683594 C 90.246094 265.917969 91.863281 267.53125 93.476562 269.144531 C 94.277344 269.957031 91.242188 271.378906 92.789062 271.445312 C 90.550781 273.679688 87.238281 277.800781 90.273438 276.382812 C 91.835938 276.4375 94.003906 272.660156 95.960938 273.128906 C 97.921875 273.597656 97.644531 276.285156 99.59375 276.753906 C 100.351562 276.011719 101.828125 274.519531 102.574219 273.777344 C 104.132812 273.847656 104.257812 276.949219 105.003906 276.203125 C 105.226562 276.09375 105.433594 275.914062 105.652344 275.789062 C 98.542969 269.570312 91.902344 262.597656 86.007812 254.875 C 72.441406 237.019531 62.542969 215.417969 58.816406 192.640625 C 55.046875 169.921875 56.441406 146.332031 63.09375 124.796875 C 69.789062 103.25 81.246094 83.863281 95.257812 68.300781 C 111.769531 49.246094 134.488281 34.960938 159.40625 26.84375 C 184.503906 19.285156 211.972656 18.019531 237.816406 24.648438 C 244.371094 25.933594 250.542969 28.523438 256.863281 30.605469 C 259.914062 31.929688 262.9375 33.347656 265.960938 34.726562 L 270.476562 36.851562 L 274.78125 39.359375 C 277.640625 41.054688 280.550781 42.683594 283.355469 44.460938 L 291.390625 50.320312 C 292.714844 51.3125 294.09375 52.238281 295.351562 53.3125 L 299.050781 56.609375 C 301.492188 58.828125 303.976562 61.003906 306.367188 63.265625 L 313.007812 70.574219 L 316.292969 74.242188 L 319.230469 78.183594 L 325.058594 86.113281 L 330.054688 94.519531 L 332.523438 98.738281 L 334.597656 103.152344 C 335.949219 106.089844 337.316406 109.039062 338.667969 111.976562 C 339.730469 115.023438 340.808594 118.054688 341.871094 121.089844 C 342.394531 122.617188 342.949219 124.121094 343.429688 125.652344 L 344.578125 130.3125 C 343.457031 130.546875 339.8125 122.910156 341.261719 131.167969 " fill-opacity="1" fill-rule="nonzero"/></g><g clip-path="url(#id2)"><path fill="#ffffff" d="M 216.847656 197.125 L 218.296875 197.113281 C 229.449219 196.988281 241.789062 206.238281 241.96875 215.53125 C 242.144531 224.71875 230.269531 233.953125 223.347656 234.027344 C 223.347656 234.027344 208.90625 234.234375 205.3125 234.410156 C 204.570312 234.449219 203.828125 234.476562 203.089844 234.480469 L 162.683594 234.925781 C 156.929688 234.980469 152.195312 239.5 152.019531 245.050781 C 151.835938 250.777344 156.757812 255.414062 162.667969 255.355469 L 189.566406 255.078125 C 191.226562 255.058594 192.550781 256.34375 192.539062 257.953125 C 192.539062 257.976562 192.539062 258.003906 192.535156 258.027344 C 192.523438 259.765625 191.050781 261.191406 189.257812 261.210938 L 177.03125 261.335938 C 171.273438 261.394531 166.539062 265.910156 166.363281 271.460938 C 166.179688 277.191406 171.101562 281.828125 177.011719 281.765625 L 229.226562 281.230469 C 230.039062 281.222656 230.828125 281.121094 231.589844 280.945312 C 248.800781 279.605469 263.445312 273.148438 274.195312 262.089844 C 285.667969 250.289062 291.855469 234.175781 292.085938 215.492188 L 292.089844 215.171875 C 292.320312 196.453125 286.492188 180.3125 275.230469 168.503906 C 263.402344 156.101562 246.644531 149.652344 226.765625 149.859375 L 218.125 149.945312 C 217.386719 149.953125 216.65625 149.996094 215.933594 150.066406 L 168.914062 150.5 C 166.792969 150.445312 165.320312 150.410156 165.320312 150.410156 C 158.402344 150.277344 146.609375 140.9375 146.867188 131.75 C 147.132812 122.457031 159.554688 113.320312 170.703125 113.542969 L 180.324219 113.726562 C 180.703125 113.734375 181.082031 113.734375 181.457031 113.722656 C 182.34375 113.699219 183.230469 113.679688 184.121094 113.695312 L 213.46875 114.230469 L 223.75 114.425781 L 238.089844 114.703125 C 244 114.816406 248.964844 110.226562 248.832031 104.496094 C 248.707031 98.945312 244.011719 94.382812 238.257812 94.273438 L 223.679688 93.992188 L 218.757812 93.898438 C 217.082031 93.863281 215.726562 92.523438 215.722656 90.902344 L 215.722656 90.820312 C 215.714844 89.101562 217.152344 87.738281 218.929688 87.769531 L 229.027344 87.964844 C 234.933594 88.078125 239.898438 83.488281 239.769531 77.757812 C 239.640625 72.203125 234.949219 67.648438 229.191406 67.535156 L 173.492188 66.523438 C 172.773438 66.449219 172.042969 66.394531 171.304688 66.382812 L 162.664062 66.214844 C 142.789062 65.832031 125.96875 72.128906 114.03125 84.421875 C 102.664062 96.128906 96.6875 112.21875 96.75 130.941406 L 96.753906 131.257812 C 96.816406 149.945312 102.855469 166.113281 114.21875 178.015625 C 122.078125 186.246094 132.078125 191.980469 143.6875 195.027344 M 135.933594 235.199219 L 128.011719 235.277344 C 122.1875 235.339844 117.410156 239.964844 117.339844 245.605469 C 117.269531 251.246094 121.933594 255.773438 127.757812 255.710938 L 135.679688 255.632812 C 141.503906 255.570312 146.28125 250.949219 146.351562 245.304688 C 146.421875 239.664062 141.757812 235.136719 135.933594 235.199219 Z M 244.027344 78.039062 C 244.007812 72.394531 248.714844 67.910156 254.535156 68.027344 L 262.457031 68.175781 C 268.277344 68.289062 273.015625 72.957031 273.035156 78.597656 C 273.050781 84.238281 268.347656 88.722656 262.523438 88.613281 L 254.605469 88.457031 C 248.785156 88.347656 244.046875 83.683594 244.027344 78.039062 " fill-opacity="1" fill-rule="nonzero"/></g></svg>